<?xml version="1.0" encoding="UTF-8"?>
<!DOCTYPE svg PUBLIC "-//W3C//DTD SVG 1.1//EN" "http://www.w3.org/Graphics/SVG/1.1/DTD/svg11.dtd">
<svg xmlns="http://www.w3.org/2000/svg" version="1.1" width="500px" height="500px" style="shape-rendering:geometricPrecision; text-rendering:geometricPrecision; image-rendering:optimizeQuality; fill-rule:evenodd; clip-rule:evenodd" xmlns:xlink="http://www.w3.org/1999/xlink">
<g><path style="opacity:1" fill="#f9e384" d="M -0.5,-0.5 C 166.167,-0.5 332.833,-0.5 499.5,-0.5C 499.5,166.167 499.5,332.833 499.5,499.5C 332.833,499.5 166.167,499.5 -0.5,499.5C -0.5,332.833 -0.5,166.167 -0.5,-0.5 Z"/></g>
<g><path style="opacity:1" fill="#fefefb" d="M 420.5,402.5 C 470.186,341.554 487.686,272.221 473,194.5C 466.752,173.669 457.085,154.669 444,137.5C 433.271,123.766 421.437,110.932 408.5,99C 379.494,76.3616 348.16,57.3616 314.5,42C 306.049,38.8873 297.382,36.7206 288.5,35.5C 290.319,28.8531 294.652,26.6864 301.5,29C 358.838,50.2512 407.005,84.4179 446,131.5C 444.513,126.869 442.18,122.536 439,118.5C 414.697,84.2059 383.197,58.7059 344.5,42C 324.749,32.4556 304.082,25.7889 282.5,22C 242.341,18.5363 202.674,21.5363 163.5,31C 158.012,32.607 152.678,34.607 147.5,37C 132.214,44.3852 117.547,52.3852 103.5,61C 123.364,45.0629 145.364,32.7296 169.5,24C 208.28,14.4808 247.613,11.1475 287.5,14C 356.815,25.3869 411.648,59.5536 452,116.5C 461.942,133.719 470.275,151.719 477,170.5C 482.87,194.054 488.203,217.721 493,241.5C 496.354,292.085 484.354,338.752 457,381.5C 455.333,383.5 453.667,385.5 452,387.5C 467.379,361.747 478.712,334.08 486,304.5C 490.137,282.535 490.47,260.535 487,238.5C 486.563,302.322 464.397,356.989 420.5,402.5 Z"/></g>
<g><path style="opacity:1" fill="#fefefb" d="M 65.5,95.5 C 66.525,95.8966 66.6917,96.5632 66,97.5C 15.9173,157.915 -0.41604,226.582 17,303.5C 18.2838,298.976 19.9504,294.643 22,290.5C 50.5447,380.377 110.378,437.544 201.5,462C 251.443,475.632 300.443,472.965 348.5,454C 358.158,449.002 367.825,444.335 377.5,440C 317.571,480.578 252.905,489.912 183.5,468C 138.589,454.643 99.7552,431.477 67,398.5C 79.4849,414.645 94.3182,428.478 111.5,440C 171.36,481.709 237.027,494.709 308.5,479C 340.073,470.941 369.406,458.274 396.5,441C 331.32,486.701 259.987,500.035 182.5,481C 67.8783,445.117 7.87828,367.117 2.5,247C 2.64346,204.572 14.4768,165.739 38,130.5C 46.2372,118.097 55.4038,106.43 65.5,95.5 Z"/></g>
<g><path style="opacity:1" fill="#fefdfd" d="M 419.5,275.5 C 420.167,272.833 420.833,270.167 421.5,267.5C 425.144,250.448 427.977,233.115 430,215.5C 433.643,199.75 427.477,191.75 411.5,191.5C 409.167,189.5 406.833,187.5 404.5,185.5C 401.167,182.5 397.833,179.5 394.5,176.5C 394.27,173.232 394.603,169.898 395.5,166.5C 394.167,166.5 392.833,166.5 391.5,166.5C 390.499,162.665 389.499,158.831 388.5,155C 385.126,154.479 382.126,153.146 379.5,151C 377.866,150.506 376.199,150.34 374.5,150.5C 374.337,152.857 374.503,155.19 375,157.5C 375.383,158.056 375.883,158.389 376.5,158.5C 375.89,159.391 375.557,160.391 375.5,161.5C 373.043,162.735 371.71,164.735 371.5,167.5C 370.167,167.5 368.833,167.5 367.5,167.5C 367.5,169.833 367.5,172.167 367.5,174.5C 359.807,176.338 352.474,179.338 345.5,183.5C 338.429,181.982 331.429,180.315 324.5,178.5C 323.432,177.566 322.099,177.232 320.5,177.5C 319.5,177.5 318.5,177.5 317.5,177.5C 308.973,173.062 301.306,167.396 294.5,160.5C 293.914,160.709 293.414,161.043 293,161.5C 293.053,163.936 292.887,166.269 292.5,168.5C 288.801,167.302 285.801,165.135 283.5,162C 279.329,159.671 275.995,160.504 273.5,164.5C 279.369,175.197 288.369,181.364 300.5,183C 304.394,185.446 308.394,187.612 312.5,189.5C 312.241,192.48 313.574,194.313 316.5,195C 324.546,197.509 332.546,200.009 340.5,202.5C 339.542,203.962 338.376,205.295 337,206.5C 336.648,208.247 336.148,209.914 335.5,211.5C 332.383,211.642 329.883,212.976 328,215.5C 316.057,229.891 305.223,245.058 295.5,261C 296.315,262.643 297.315,264.143 298.5,265.5C 293.968,265.818 289.634,265.485 285.5,264.5C 287.453,258.926 288.12,252.926 287.5,246.5C 287.666,237.827 287.5,229.16 287,220.5C 285.809,217.466 283.642,215.799 280.5,215.5C 280.783,214.711 281.283,214.044 282,213.5C 282.667,208.5 282.667,203.5 282,198.5C 278.951,194.957 276.118,191.291 273.5,187.5C 272.28,180.362 268.28,175.696 261.5,173.5C 260.198,171.178 258.198,169.845 255.5,169.5C 255.136,163.632 252.136,161.465 246.5,163C 245.269,164.405 243.936,165.571 242.5,166.5C 241.596,165.791 241.263,164.791 241.5,163.5C 241.666,160.832 242.666,158.498 244.5,156.5C 244.376,155.893 244.043,155.56 243.5,155.5C 244.658,147.495 241.325,144.661 233.5,147C 226.399,149.155 224.399,153.321 227.5,159.5C 227.488,162.142 228.821,163.475 231.5,163.5C 234.309,163.958 234.976,165.291 233.5,167.5C 227.75,169.874 222.083,172.54 216.5,175.5C 197.238,178.107 188.904,189.107 191.5,208.5C 191.5,210.167 191.5,211.833 191.5,213.5C 191.781,227.061 192.781,240.561 194.5,254C 194.494,256.033 194.161,257.866 193.5,259.5C 187.471,259.425 181.471,259.759 175.5,260.5C 176.833,259.067 178.333,257.733 180,256.5C 180.667,255.5 180.667,254.5 180,253.5C 174.146,245.765 168.313,238.098 162.5,230.5C 156.234,220.903 148.901,212.236 140.5,204.5C 141.669,198.339 139.669,193.506 134.5,190C 129.317,186.24 124.317,182.24 119.5,178C 113.5,175 107.5,172 101.5,169C 100.251,168.26 99.2506,168.427 98.5,169.5C 97.596,168.791 97.2627,167.791 97.5,166.5C 98.1511,164.174 98.8178,161.841 99.5,159.5C 99.5635,157.486 98.8968,155.819 97.5,154.5C 100.308,151.382 99.8085,148.715 96,146.5C 93.1669,148.891 90.0003,150.724 86.5,152C 85.6872,153.314 84.6872,154.481 83.5,155.5C 83.9943,157.026 84.661,158.359 85.5,159.5C 85.5,160.167 85.5,160.833 85.5,161.5C 87.3439,162.756 88.6772,164.423 89.5,166.5C 89.4841,168.516 88.4841,169.516 86.5,169.5C 82.9796,170.353 80.3129,172.353 78.5,175.5C 74.5644,177.766 71.2311,180.766 68.5,184.5C 68.1667,184.5 67.8333,184.5 67.5,184.5C 61.9403,185.631 56.607,187.464 51.5,190C 47.9131,193.005 45.7464,196.838 45,201.5C 44.7509,212.017 44.5843,222.351 44.5,232.5C 36.3366,188.994 52.0033,157.494 91.5,138C 127.358,126.303 157.858,134.469 183,162.5C 217.107,130.967 254.94,125.8 296.5,147C 306.187,152.846 314.853,160.012 322.5,168.5C 346.275,144.81 373.942,138.977 405.5,151C 437.282,167.056 451.448,192.89 448,228.5C 444.813,248.147 435.313,263.814 419.5,275.5 Z"/></g>
<g><path style="opacity:1" fill="#44697c" d="M 97.5,154.5 C 95.9731,154.427 94.9731,155.094 94.5,156.5C 94.1667,156.5 93.8333,156.5 93.5,156.5C 90.7906,155.302 88.9572,156.302 88,159.5C 87.0228,158.226 86.1894,158.226 85.5,159.5C 84.661,158.359 83.9943,157.026 83.5,155.5C 84.6872,154.481 85.6872,153.314 86.5,152C 90.0003,150.724 93.1669,148.891 96,146.5C 99.8085,148.715 100.308,151.382 97.5,154.5 Z"/></g>
<g><path style="opacity:1" fill="#e6c29d" d="M 243.5,155.5 C 242.833,155.5 242.167,155.5 241.5,155.5C 241.5,154.5 241.5,153.5 241.5,152.5C 237.187,152.269 233.521,153.602 230.5,156.5C 231.523,158.895 230.523,159.895 227.5,159.5C 224.399,153.321 226.399,149.155 233.5,147C 241.325,144.661 244.658,147.495 243.5,155.5 Z"/></g>
<g><path style="opacity:1" fill="#a09673" d="M 93.5,156.5 C 93.3155,159.173 92.1489,159.84 90,158.5C 89.3333,159.833 88.6667,161.167 88,162.5C 87.6582,160.381 86.8249,160.047 85.5,161.5C 85.5,160.833 85.5,160.167 85.5,159.5C 86.1894,158.226 87.0228,158.226 88,159.5C 88.9572,156.302 90.7906,155.302 93.5,156.5 Z"/></g>
<g><path style="opacity:1" fill="#8f4f4b" d="M 241.5,155.5 C 240.942,156.79 239.942,157.623 238.5,158C 240.405,158.826 240.739,159.993 239.5,161.5C 237.568,162.52 235.568,162.687 233.5,162C 234.711,161.107 234.711,160.274 233.5,159.5C 231.889,160.32 231.222,161.654 231.5,163.5C 228.821,163.475 227.488,162.142 227.5,159.5C 230.523,159.895 231.523,158.895 230.5,156.5C 233.521,153.602 237.187,152.269 241.5,152.5C 241.5,153.5 241.5,154.5 241.5,155.5 Z"/></g>
<g><path style="opacity:1" fill="#a84f45" d="M 241.5,155.5 C 242.167,155.5 242.833,155.5 243.5,155.5C 244.043,155.56 244.376,155.893 244.5,156.5C 242.666,158.498 241.666,160.832 241.5,163.5C 240.523,166.287 240.19,169.287 240.5,172.5C 239.167,172.5 237.833,172.5 236.5,172.5C 235.07,171.463 233.403,170.796 231.5,170.5C 232.167,169.5 232.833,168.5 233.5,167.5C 234.976,165.291 234.309,163.958 231.5,163.5C 231.222,161.654 231.889,160.32 233.5,159.5C 234.711,160.274 234.711,161.107 233.5,162C 235.568,162.687 237.568,162.52 239.5,161.5C 240.739,159.993 240.405,158.826 238.5,158C 239.942,157.623 240.942,156.79 241.5,155.5 Z"/></g>
<g><path style="opacity:1" fill="#c0776d" d="M 385.5,162.5 C 383.002,164.666 380.002,165.666 376.5,165.5C 376.768,163.901 376.434,162.568 375.5,161.5C 375.557,160.391 375.89,159.391 376.5,158.5C 380.607,156.873 383.607,158.206 385.5,162.5 Z"/></g>
<g><path style="opacity:1" fill="#f7c27d" d="M 93.5,156.5 C 93.8333,156.5 94.1667,156.5 94.5,156.5C 94.7512,158.17 95.4178,159.67 96.5,161C 91.8218,161.197 91.4884,162.197 95.5,164C 94.1667,164.333 92.8333,164.667 91.5,165C 92.448,165.483 93.448,165.649 94.5,165.5C 93.6314,167.717 93.298,170.05 93.5,172.5C 91.7839,172.371 90.1172,172.038 88.5,171.5C 87.5,171.167 86.8333,170.5 86.5,169.5C 88.4841,169.516 89.4841,168.516 89.5,166.5C 88.6772,164.423 87.3439,162.756 85.5,161.5C 86.8249,160.047 87.6582,160.381 88,162.5C 88.6667,161.167 89.3333,159.833 90,158.5C 92.1489,159.84 93.3155,159.173 93.5,156.5 Z"/></g>
<g><path style="opacity:1" fill="#ccaa7a" d="M 97.5,154.5 C 98.8968,155.819 99.5635,157.486 99.5,159.5C 98.8178,161.841 98.1511,164.174 97.5,166.5C 96.609,165.89 95.609,165.557 94.5,165.5C 93.448,165.649 92.448,165.483 91.5,165C 92.8333,164.667 94.1667,164.333 95.5,164C 91.4884,162.197 91.8218,161.197 96.5,161C 95.4178,159.67 94.7512,158.17 94.5,156.5C 94.9731,155.094 95.9731,154.427 97.5,154.5 Z"/></g>
<g><path style="opacity:1" fill="#f9b06d" d="M 394.5,176.5 C 392.539,174.688 390.206,173.688 387.5,173.5C 383.529,170.276 383.529,166.943 387.5,163.5C 387.043,162.702 386.376,162.369 385.5,162.5C 383.607,158.206 380.607,156.873 376.5,158.5C 375.883,158.389 375.383,158.056 375,157.5C 374.503,155.19 374.337,152.857 374.5,150.5C 376.199,150.34 377.866,150.506 379.5,151C 382.126,153.146 385.126,154.479 388.5,155C 389.499,158.831 390.499,162.665 391.5,166.5C 392.833,166.5 394.167,166.5 395.5,166.5C 394.603,169.898 394.27,173.232 394.5,176.5 Z"/></g>
<g><path style="opacity:1" fill="#f7bb83" d="M 375.5,161.5 C 375.947,165.002 376.947,168.336 378.5,171.5C 376.265,171.205 374.265,171.539 372.5,172.5C 370.833,173.167 369.167,173.833 367.5,174.5C 367.5,172.167 367.5,169.833 367.5,167.5C 368.833,167.5 370.167,167.5 371.5,167.5C 371.71,164.735 373.043,162.735 375.5,161.5 Z"/></g>
<g><path style="opacity:1" fill="#feb052" d="M 94.5,165.5 C 95.609,165.557 96.609,165.89 97.5,166.5C 97.2627,167.791 97.596,168.791 98.5,169.5C 98.5042,173.33 96.8375,174.33 93.5,172.5C 93.298,170.05 93.6314,167.717 94.5,165.5 Z"/></g>
<g><path style="opacity:1" fill="#9b4339" d="M 255.5,169.5 C 257.232,173.344 259.399,176.677 262,179.5C 259.372,181.126 257.039,183.126 255,185.5C 253.359,181.677 250.526,179.677 246.5,179.5C 245.768,176.382 244.101,175.049 241.5,175.5C 241.264,172.391 241.597,169.391 242.5,166.5C 243.936,165.571 245.269,164.405 246.5,163C 252.136,161.465 255.136,163.632 255.5,169.5 Z"/></g>
<g><path style="opacity:1" fill="#e17f6f" d="M 317.5,177.5 C 315.824,181.592 314.157,185.592 312.5,189.5C 308.394,187.612 304.394,185.446 300.5,183C 288.369,181.364 279.369,175.197 273.5,164.5C 275.995,160.504 279.329,159.671 283.5,162C 285.801,165.135 288.801,167.302 292.5,168.5C 292.887,166.269 293.053,163.936 293,161.5C 293.414,161.043 293.914,160.709 294.5,160.5C 301.306,167.396 308.973,173.062 317.5,177.5 Z"/></g>
<g><path style="opacity:1" fill="#dd6c5a" d="M 375.5,161.5 C 376.434,162.568 376.768,163.901 376.5,165.5C 380.002,165.666 383.002,164.666 385.5,162.5C 386.376,162.369 387.043,162.702 387.5,163.5C 383.529,166.943 383.529,170.276 387.5,173.5C 388.372,176.676 387.039,178.676 383.5,179.5C 379.921,179.234 379.587,177.901 382.5,175.5C 380.625,174.591 379.292,173.257 378.5,171.5C 376.947,168.336 375.947,165.002 375.5,161.5 Z"/></g>
<g><path style="opacity:1" fill="#e58a7a" d="M 372.5,172.5 C 374.265,171.539 376.265,171.205 378.5,171.5C 379.292,173.257 380.625,174.591 382.5,175.5C 379.587,177.901 379.921,179.234 383.5,179.5C 383.5,180.167 383.167,180.5 382.5,180.5C 378.187,181.01 374.187,180.343 370.5,178.5C 370.452,175.708 371.785,173.875 374.5,173C 373.906,172.536 373.239,172.369 372.5,172.5 Z"/></g>
<g><path style="opacity:1" fill="#23635b" d="M 98.5,169.5 C 99.2506,168.427 100.251,168.26 101.5,169C 107.5,172 113.5,175 119.5,178C 124.317,182.24 129.317,186.24 134.5,190C 139.669,193.506 141.669,198.339 140.5,204.5C 139.292,205.234 137.959,205.567 136.5,205.5C 131.948,201.566 127.282,201.566 122.5,205.5C 120.926,206.984 119.593,208.651 118.5,210.5C 113.869,204.076 109.869,197.243 106.5,190C 99.5021,187.504 92.5021,185.171 85.5,183C 84.658,180.165 82.8247,178.331 80,177.5C 73.443,182.962 72.943,182.295 78.5,175.5C 80.3129,172.353 82.9796,170.353 86.5,169.5C 86.8333,170.5 87.5,171.167 88.5,171.5C 92.4356,175.938 96.6022,180.271 101,184.5C 101.667,180.5 101.667,176.5 101,172.5C 100.623,171.058 99.7899,170.058 98.5,169.5 Z"/></g>
<g><path style="opacity:1" fill="#cfce9c" d="M 98.5,169.5 C 99.7899,170.058 100.623,171.058 101,172.5C 101.667,176.5 101.667,180.5 101,184.5C 96.6022,180.271 92.4356,175.938 88.5,171.5C 90.1172,172.038 91.7839,172.371 93.5,172.5C 96.8375,174.33 98.5042,173.33 98.5,169.5 Z"/></g>
<g><path style="opacity:1" fill="#d0d9c0" d="M 261.5,173.5 C 268.28,175.696 272.28,180.362 273.5,187.5C 271.167,185.5 268.833,183.5 266.5,181.5C 264.833,178.833 263.167,176.167 261.5,173.5 Z"/></g>
<g><path style="opacity:1" fill="#31756a" d="M 78.5,175.5 C 72.943,182.295 73.443,182.962 80,177.5C 82.8247,178.331 84.658,180.165 85.5,183C 92.5021,185.171 99.5021,187.504 106.5,190C 109.869,197.243 113.869,204.076 118.5,210.5C 118.443,211.609 118.11,212.609 117.5,213.5C 114.282,216.277 110.615,218.277 106.5,219.5C 105.802,213.091 102.469,208.758 96.5,206.5C 94.7392,205.687 93.0725,204.687 91.5,203.5C 90.1321,201.395 89.1321,199.061 88.5,196.5C 86.7539,194.146 84.4206,193.146 81.5,193.5C 81.8633,191.089 80.8633,189.589 78.5,189C 74.7774,189.04 71.1108,189.373 67.5,190C 70.1025,188.446 71.2692,186.28 71,183.5C 70.3292,184.252 69.4959,184.586 68.5,184.5C 71.2311,180.766 74.5644,177.766 78.5,175.5 Z"/></g>
<g><path style="opacity:1" fill="#5f6783" d="M 241.5,175.5 C 244.101,175.049 245.768,176.382 246.5,179.5C 245.313,181.74 244.646,184.24 244.5,187C 245.775,192.877 247.108,198.71 248.5,204.5C 245.029,195.7 242.362,186.534 240.5,177C 240.57,176.235 240.903,175.735 241.5,175.5 Z"/></g>
<g><path style="opacity:1" fill="#6f7b98" d="M 231.5,170.5 C 233.403,170.796 235.07,171.463 236.5,172.5C 239.054,187.384 241.054,202.384 242.5,217.5C 247.672,224.91 250.339,224.077 250.5,215C 249.724,211.511 249.058,208.011 248.5,204.5C 250.567,207.927 251.9,211.594 252.5,215.5C 252.557,219.029 253.557,222.029 255.5,224.5C 251.521,225.176 247.521,226.176 243.5,227.5C 242.833,227.167 242.167,226.833 241.5,226.5C 241.167,225.833 240.833,225.167 240.5,224.5C 240.986,208.456 238.152,192.789 232,177.5C 231.503,175.19 231.337,172.857 231.5,170.5 Z"/></g>
<g><path style="opacity:1" fill="#f3aad6" d="M 370.5,178.5 C 374.187,180.343 378.187,181.01 382.5,180.5C 378.811,183.029 375.978,186.362 374,190.5C 369.586,200.244 366.086,210.244 363.5,220.5C 360.982,219.736 358.649,218.736 356.5,217.5C 360.908,208.006 365.408,198.339 370,188.5C 370.494,186.866 370.66,185.199 370.5,183.5C 370.5,181.833 370.5,180.167 370.5,178.5 Z"/></g>
<g><path style="opacity:1" fill="#f5cf9d" d="M 255.5,169.5 C 258.198,169.845 260.198,171.178 261.5,173.5C 263.167,176.167 264.833,178.833 266.5,181.5C 265.233,180.913 264.233,180.913 263.5,181.5C 265.021,184.85 264.688,188.016 262.5,191C 263.915,197.966 265.415,204.799 267,211.5C 264.356,207.879 262.523,203.879 261.5,199.5C 258.765,197.268 256.598,194.601 255,191.5C 254.009,199.628 253.176,207.628 252.5,215.5C 251.9,211.594 250.567,207.927 248.5,204.5C 247.108,198.71 245.775,192.877 244.5,187C 244.646,184.24 245.313,181.74 246.5,179.5C 250.526,179.677 253.359,181.677 255,185.5C 257.039,183.126 259.372,181.126 262,179.5C 259.399,176.677 257.232,173.344 255.5,169.5 Z"/></g>
<g><path style="opacity:1" fill="#3d5788" d="M 372.5,172.5 C 373.239,172.369 373.906,172.536 374.5,173C 371.785,173.875 370.452,175.708 370.5,178.5C 370.5,180.167 370.5,181.833 370.5,183.5C 369.542,183.953 368.708,184.619 368,185.5C 366.855,183.074 365.522,180.741 364,178.5C 364.476,181.16 365.31,183.826 366.5,186.5C 364.587,187.051 362.587,187.218 360.5,187C 356.116,190.856 351.116,193.69 345.5,195.5C 344.833,195.167 344.167,194.833 343.5,194.5C 341.399,199.743 343.066,202.41 348.5,202.5C 345.995,203.497 343.328,203.497 340.5,202.5C 332.546,200.009 324.546,197.509 316.5,195C 313.574,194.313 312.241,192.48 312.5,189.5C 314.157,185.592 315.824,181.592 317.5,177.5C 318.5,177.5 319.5,177.5 320.5,177.5C 323.467,180.249 322.8,181.749 318.5,182C 323.379,184.247 328.379,184.747 333.5,183.5C 334.192,184.025 334.692,184.692 335,185.5C 336.399,184.773 337.899,184.273 339.5,184C 334.543,182.511 329.543,181.178 324.5,180C 323.262,179.31 323.262,178.81 324.5,178.5C 331.429,180.315 338.429,181.982 345.5,183.5C 352.474,179.338 359.807,176.338 367.5,174.5C 369.167,173.833 370.833,173.167 372.5,172.5 Z"/></g>
<g><path style="opacity:1" fill="#6b7fa2" d="M 320.5,177.5 C 322.099,177.232 323.432,177.566 324.5,178.5C 323.262,178.81 323.262,179.31 324.5,180C 329.543,181.178 334.543,182.511 339.5,184C 337.899,184.273 336.399,184.773 335,185.5C 334.692,184.692 334.192,184.025 333.5,183.5C 328.379,184.747 323.379,184.247 318.5,182C 322.8,181.749 323.467,180.249 320.5,177.5 Z"/></g>
<g><path style="opacity:1" fill="#c7d5bc" d="M 67.5,184.5 C 66.8333,185.5 66.1667,186.5 65.5,187.5C 61.8691,190.629 58.3691,193.963 55,197.5C 52.4005,202.99 53.4005,207.656 58,211.5C 65.6731,214.859 73.5064,217.525 81.5,219.5C 82.172,220.267 83.0053,220.934 84,221.5C 85.8219,226.457 87.4886,231.457 89,236.5C 89.977,241.793 90.477,247.126 90.5,252.5C 92.1238,252.64 93.2904,251.973 94,250.5C 94.9319,253.89 96.4319,256.89 98.5,259.5C 103.3,259.65 107.967,258.984 112.5,257.5C 113.239,257.369 113.906,257.536 114.5,258C 113.477,260.774 113.477,263.607 114.5,266.5C 116.989,266.298 119.323,266.798 121.5,268C 114.1,270.004 106.767,272.004 99.5,274C 102.746,273.683 106.08,273.517 109.5,273.5C 105.989,274.664 102.323,275.664 98.5,276.5C 98.7845,278.415 98.4511,280.081 97.5,281.5C 97.5,280.167 97.5,278.833 97.5,277.5C 96.5,277.5 95.5,277.5 94.5,277.5C 91.7628,277.599 89.0961,277.265 86.5,276.5C 79.5779,274.369 72.9112,271.702 66.5,268.5C 65.609,267.89 64.609,267.557 63.5,267.5C 59.6733,265.754 56.0066,263.754 52.5,261.5C 51.7677,260.192 50.9344,258.858 50,257.5C 48.9905,248.949 47.1571,240.616 44.5,232.5C 44.5843,222.351 44.7509,212.017 45,201.5C 45.7464,196.838 47.9131,193.005 51.5,190C 56.607,187.464 61.9403,185.631 67.5,184.5 Z"/></g>
<g><path style="opacity:1" fill="#df8575" d="M 241.5,163.5 C 241.263,164.791 241.596,165.791 242.5,166.5C 241.597,169.391 241.264,172.391 241.5,175.5C 240.903,175.735 240.57,176.235 240.5,177C 242.362,186.534 245.029,195.7 248.5,204.5C 249.058,208.011 249.724,211.511 250.5,215C 250.339,224.077 247.672,224.91 242.5,217.5C 241.054,202.384 239.054,187.384 236.5,172.5C 237.833,172.5 239.167,172.5 240.5,172.5C 240.19,169.287 240.523,166.287 241.5,163.5 Z"/></g>
<g><path style="opacity:1" fill="#f6ce96" d="M 233.5,167.5 C 232.833,168.5 232.167,169.5 231.5,170.5C 231.337,172.857 231.503,175.19 232,177.5C 238.152,192.789 240.986,208.456 240.5,224.5C 239.657,222.827 238.324,221.66 236.5,221C 232.848,220.501 229.182,220.335 225.5,220.5C 225.5,219.833 225.833,219.5 226.5,219.5C 230.5,219.5 234.5,219.5 238.5,219.5C 238.75,214.42 238.25,209.42 237,204.5C 236.309,206.891 235.309,206.891 234,204.5C 233.069,206.459 232.236,208.459 231.5,210.5C 229.865,211.681 228.198,211.681 226.5,210.5C 225.568,208.234 224.234,206.234 222.5,204.5C 221.817,204.863 221.15,205.196 220.5,205.5C 213.934,204.949 208.268,206.949 203.5,211.5C 201.421,216.256 202.754,219.256 207.5,220.5C 206.538,224.146 204.205,225.313 200.5,224C 197.127,220.708 194.127,217.208 191.5,213.5C 191.5,211.833 191.5,210.167 191.5,208.5C 196.642,200.231 201.808,191.897 207,183.5C 209.775,180.22 212.942,177.554 216.5,175.5C 222.083,172.54 227.75,169.874 233.5,167.5 Z"/></g>
<g><path style="opacity:1" fill="#387c71" d="M 65.5,187.5 C 65.6168,189.484 64.9501,191.15 63.5,192.5C 64.8532,193.524 65.5198,194.857 65.5,196.5C 71.5572,198.726 77.8905,200.226 84.5,201C 86.4913,201.374 88.158,202.207 89.5,203.5C 87.1154,205.602 85.7821,208.269 85.5,211.5C 85.6399,213.03 86.3065,214.03 87.5,214.5C 87.5,216.167 87.5,217.833 87.5,219.5C 85.5,219.5 83.5,219.5 81.5,219.5C 73.5064,217.525 65.6731,214.859 58,211.5C 53.4005,207.656 52.4005,202.99 55,197.5C 58.3691,193.963 61.8691,190.629 65.5,187.5 Z"/></g>
<g><path style="opacity:1" fill="#23655d" d="M 91.5,203.5 C 90.8333,203.5 90.1667,203.5 89.5,203.5C 88.158,202.207 86.4913,201.374 84.5,201C 77.8905,200.226 71.5572,198.726 65.5,196.5C 65.5198,194.857 64.8532,193.524 63.5,192.5C 64.9501,191.15 65.6168,189.484 65.5,187.5C 66.1667,186.5 66.8333,185.5 67.5,184.5C 67.8333,184.5 68.1667,184.5 68.5,184.5C 69.4959,184.586 70.3292,184.252 71,183.5C 71.2692,186.28 70.1025,188.446 67.5,190C 71.1108,189.373 74.7774,189.04 78.5,189C 80.8633,189.589 81.8633,191.089 81.5,193.5C 84.4206,193.146 86.7539,194.146 88.5,196.5C 89.1321,199.061 90.1321,201.395 91.5,203.5 Z"/></g>
<g><path style="opacity:1" fill="#c8d3ba" d="M 216.5,175.5 C 212.942,177.554 209.775,180.22 207,183.5C 201.808,191.897 196.642,200.231 191.5,208.5C 188.904,189.107 197.238,178.107 216.5,175.5 Z"/></g>
<g><path style="opacity:1" fill="#344c7c" d="M 370.5,183.5 C 370.66,185.199 370.494,186.866 370,188.5C 365.408,198.339 360.908,208.006 356.5,217.5C 353.982,216.736 351.649,215.736 349.5,214.5C 349.737,210.29 351.07,206.456 353.5,203C 351.866,202.506 350.199,202.34 348.5,202.5C 343.066,202.41 341.399,199.743 343.5,194.5C 344.167,194.833 344.833,195.167 345.5,195.5C 351.116,193.69 356.116,190.856 360.5,187C 362.587,187.218 364.587,187.051 366.5,186.5C 365.31,183.826 364.476,181.16 364,178.5C 365.522,180.741 366.855,183.074 368,185.5C 368.708,184.619 369.542,183.953 370.5,183.5 Z"/></g>
<g><path style="opacity:1" fill="#3b5383" d="M 387.5,173.5 C 390.206,173.688 392.539,174.688 394.5,176.5C 397.833,179.5 401.167,182.5 404.5,185.5C 403.178,185.33 402.011,185.663 401,186.5C 398.333,183.833 395.667,181.167 393,178.5C 392.781,179.938 392.281,181.271 391.5,182.5C 387.886,183.82 384.22,184.987 380.5,186C 379.526,188.702 380.526,190.035 383.5,190C 381.128,188.529 381.128,187.363 383.5,186.5C 385.17,187.995 387.003,189.328 389,190.5C 389.273,188.899 389.773,187.399 390.5,186C 392.519,185.55 394.352,184.717 396,183.5C 396.483,184.448 396.649,185.448 396.5,186.5C 394.833,186.5 393.167,186.5 391.5,186.5C 391.137,188.911 392.137,190.411 394.5,191C 393.833,191.333 393.167,191.667 392.5,192C 393.13,193.892 394.13,195.559 395.5,197C 394.773,198.399 394.273,199.899 394,201.5C 390.405,202.289 386.905,203.456 383.5,205C 390.462,204.28 397.295,202.78 404,200.5C 404.167,200.833 404.333,201.167 404.5,201.5C 403.052,202.354 401.719,203.354 400.5,204.5C 397.784,210.55 393.45,214.883 387.5,217.5C 387.675,215.379 387.341,213.379 386.5,211.5C 386.325,209.156 385.158,207.489 383,206.5C 378.728,208.806 374.728,211.472 371,214.5C 370.295,217.476 369.129,220.142 367.5,222.5C 366.167,221.833 364.833,221.167 363.5,220.5C 366.086,210.244 369.586,200.244 374,190.5C 375.978,186.362 378.811,183.029 382.5,180.5C 383.167,180.5 383.5,180.167 383.5,179.5C 387.039,178.676 388.372,176.676 387.5,173.5 Z"/></g>
<g><path style="opacity:1" fill="#2c4472" d="M 404.5,185.5 C 406.833,187.5 409.167,189.5 411.5,191.5C 415.751,195.751 418.751,200.751 420.5,206.5C 420.423,208.299 419.923,209.966 419,211.5C 416.521,213.314 414.021,214.981 411.5,216.5C 403.679,219.042 396.012,222.042 388.5,225.5C 387.641,223 386.641,220.667 385.5,218.5C 385.842,217.662 386.508,217.328 387.5,217.5C 393.45,214.883 397.784,210.55 400.5,204.5C 401.719,203.354 403.052,202.354 404.5,201.5C 404.333,201.167 404.167,200.833 404,200.5C 397.295,202.78 390.462,204.28 383.5,205C 386.905,203.456 390.405,202.289 394,201.5C 394.273,199.899 394.773,198.399 395.5,197C 394.13,195.559 393.13,193.892 392.5,192C 393.167,191.667 393.833,191.333 394.5,191C 392.137,190.411 391.137,188.911 391.5,186.5C 393.167,186.5 394.833,186.5 396.5,186.5C 396.649,185.448 396.483,184.448 396,183.5C 394.352,184.717 392.519,185.55 390.5,186C 389.773,187.399 389.273,188.899 389,190.5C 387.003,189.328 385.17,187.995 383.5,186.5C 381.128,187.363 381.128,188.529 383.5,190C 380.526,190.035 379.526,188.702 380.5,186C 384.22,184.987 387.886,183.82 391.5,182.5C 392.281,181.271 392.781,179.938 393,178.5C 395.667,181.167 398.333,183.833 401,186.5C 402.011,185.663 403.178,185.33 404.5,185.5 Z"/></g>
<g><path style="opacity:1" fill="#fab157" d="M 136.5,205.5 C 134.683,207.012 133.683,209.012 133.5,211.5C 135.266,214.467 134.599,216.467 131.5,217.5C 130.563,213.57 129.563,213.57 128.5,217.5C 126.879,215.847 125.712,213.847 125,211.5C 124.667,212.833 124.333,214.167 124,215.5C 123.546,213.464 122.713,211.63 121.5,210C 121.759,208.739 122.426,207.739 123.5,207C 122.944,206.617 122.611,206.117 122.5,205.5C 127.282,201.566 131.948,201.566 136.5,205.5 Z"/></g>
<g><path style="opacity:1" fill="#b6c6a6" d="M 340.5,202.5 C 343.328,203.497 345.995,203.497 348.5,202.5C 350.199,202.34 351.866,202.506 353.5,203C 351.07,206.456 349.737,210.29 349.5,214.5C 345.03,212.679 340.364,211.679 335.5,211.5C 336.148,209.914 336.648,208.247 337,206.5C 338.376,205.295 339.542,203.962 340.5,202.5 Z"/></g>
<g><path style="opacity:1" fill="#faca8c" d="M 266.5,181.5 C 268.833,183.5 271.167,185.5 273.5,187.5C 276.118,191.291 278.951,194.957 282,198.5C 282.667,203.5 282.667,208.5 282,213.5C 281.283,214.044 280.783,214.711 280.5,215.5C 278.167,216.833 275.833,216.833 273.5,215.5C 264.606,212.794 258.606,215.794 255.5,224.5C 253.557,222.029 252.557,219.029 252.5,215.5C 253.176,207.628 254.009,199.628 255,191.5C 256.598,194.601 258.765,197.268 261.5,199.5C 262.523,203.879 264.356,207.879 267,211.5C 265.415,204.799 263.915,197.966 262.5,191C 264.688,188.016 265.021,184.85 263.5,181.5C 264.233,180.913 265.233,180.913 266.5,181.5 Z"/></g>
<g><path style="opacity:1" fill="#f0c17e" d="M 122.5,205.5 C 122.611,206.117 122.944,206.617 123.5,207C 122.426,207.739 121.759,208.739 121.5,210C 122.713,211.63 123.546,213.464 124,215.5C 124.333,214.167 124.667,212.833 125,211.5C 125.712,213.847 126.879,215.847 128.5,217.5C 129.563,213.57 130.563,213.57 131.5,217.5C 130.102,219.533 128.102,220.533 125.5,220.5C 123.162,219.663 120.828,218.83 118.5,218C 117.62,216.644 117.286,215.144 117.5,213.5C 118.11,212.609 118.443,211.609 118.5,210.5C 119.593,208.651 120.926,206.984 122.5,205.5 Z"/></g>
<g><path style="opacity:1" fill="#769c86" d="M 140.5,204.5 C 148.901,212.236 156.234,220.903 162.5,230.5C 160.46,229.481 158.46,229.481 156.5,230.5C 159.445,233.892 161.445,237.725 162.5,242C 162.333,243.167 162.167,244.333 162,245.5C 158.954,247.383 156.454,249.716 154.5,252.5C 150.118,248.92 148.452,244.42 149.5,239C 147.511,236.334 144.844,234.667 141.5,234C 138.876,231.213 136.876,228.046 135.5,224.5C 135.808,223.692 136.308,223.025 137,222.5C 137.163,219.515 137.329,216.681 137.5,214C 136.968,211.98 135.635,211.147 133.5,211.5C 133.683,209.012 134.683,207.012 136.5,205.5C 137.959,205.567 139.292,205.234 140.5,204.5 Z"/></g>
<g><path style="opacity:1" fill="#e68b7a" d="M 386.5,211.5 C 385.603,210.402 384.77,210.402 384,211.5C 383.51,212.793 383.343,214.127 383.5,215.5C 379.623,216.527 377.623,219.194 377.5,223.5C 375.533,223.739 373.699,223.406 372,222.5C 371.153,224.193 370.32,225.86 369.5,227.5C 369.167,227.5 368.833,227.5 368.5,227.5C 368.5,227.167 368.5,226.833 368.5,226.5C 368.567,225.041 368.234,223.708 367.5,222.5C 369.129,220.142 370.295,217.476 371,214.5C 374.728,211.472 378.728,208.806 383,206.5C 385.158,207.489 386.325,209.156 386.5,211.5 Z"/></g>
<g><path style="opacity:1" fill="#984138" d="M 220.5,205.5 C 224.597,209.162 226.597,213.829 226.5,219.5C 225.833,219.5 225.5,219.833 225.5,220.5C 223.999,221.752 222.332,222.752 220.5,223.5C 217.167,223.5 213.833,223.5 210.5,223.5C 209.728,222.306 208.728,221.306 207.5,220.5C 202.754,219.256 201.421,216.256 203.5,211.5C 208.268,206.949 213.934,204.949 220.5,205.5 Z"/></g>
<g><path style="opacity:1" fill="#fcc784" d="M 226.5,219.5 C 226.597,213.829 224.597,209.162 220.5,205.5C 221.15,205.196 221.817,204.863 222.5,204.5C 224.234,206.234 225.568,208.234 226.5,210.5C 228.198,211.681 229.865,211.681 231.5,210.5C 232.236,208.459 233.069,206.459 234,204.5C 235.309,206.891 236.309,206.891 237,204.5C 238.25,209.42 238.75,214.42 238.5,219.5C 234.5,219.5 230.5,219.5 226.5,219.5 Z"/></g>
<g><path style="opacity:1" fill="#f9b45d" d="M 96.5,206.5 C 102.469,208.758 105.802,213.091 106.5,219.5C 108.065,225.731 105.732,229.064 99.5,229.5C 100.468,226.555 100.634,223.555 100,220.5C 99,223.167 98,223.167 97,220.5C 96.6667,220.833 96.3333,221.167 96,221.5C 96.0187,219.893 96.1854,218.226 96.5,216.5C 90.033,215.14 89.033,211.974 93.5,207C 94.448,206.517 95.448,206.351 96.5,206.5 Z"/></g>
<g><path style="opacity:1" fill="#c9d5bc" d="M 191.5,213.5 C 194.127,217.208 197.127,220.708 200.5,224C 204.205,225.313 206.538,224.146 207.5,220.5C 208.728,221.306 209.728,222.306 210.5,223.5C 211.568,224.434 212.901,224.768 214.5,224.5C 211.918,235.801 211.918,247.134 214.5,258.5C 218.298,261.845 222.631,262.512 227.5,260.5C 229.008,262.181 230.008,264.181 230.5,266.5C 228.752,270.615 228.086,274.782 228.5,279C 229.942,279.377 230.942,280.21 231.5,281.5C 225.819,281.365 220.152,281.032 214.5,280.5C 210.914,279.191 207.248,277.858 203.5,276.5C 199.661,274.134 197.328,270.801 196.5,266.5C 196.611,265.883 196.944,265.383 197.5,265C 196.335,263.008 195.002,261.175 193.5,259.5C 194.161,257.866 194.494,256.033 194.5,254C 192.781,240.561 191.781,227.061 191.5,213.5 Z"/></g>
<g><path style="opacity:1" fill="#fec67a" d="M 335.5,211.5 C 340.364,211.679 345.03,212.679 349.5,214.5C 351.649,215.736 353.982,216.736 356.5,217.5C 358.649,218.736 360.982,219.736 363.5,220.5C 364.833,221.167 366.167,221.833 367.5,222.5C 368.234,223.708 368.567,225.041 368.5,226.5C 367.504,226.414 366.671,226.748 366,227.5C 364.98,226.109 364.147,224.609 363.5,223C 362.5,222.333 361.5,222.333 360.5,223C 359.353,225.488 357.686,227.488 355.5,229C 356.167,230.667 356.833,232.333 357.5,234C 355.557,233.695 353.557,233.695 351.5,234C 349.379,237.072 347.379,240.239 345.5,243.5C 343.833,243.5 342.167,243.5 340.5,243.5C 341.043,240.962 342.043,238.628 343.5,236.5C 344.881,232.717 344.547,229.051 342.5,225.5C 339.743,224.134 337.577,224.801 336,227.5C 332.458,224.592 329.625,225.259 327.5,229.5C 329.216,229.997 330.883,230.331 332.5,230.5C 331.902,231.795 331.402,233.128 331,234.5C 327.324,236.876 324.324,239.876 322,243.5C 320.121,245.527 318.954,247.86 318.5,250.5C 317.448,250.351 316.448,250.517 315.5,251C 312.005,256.995 307.338,261.828 301.5,265.5C 300.833,265.5 300.167,265.5 299.5,265.5C 299.167,265.5 298.833,265.5 298.5,265.5C 297.315,264.143 296.315,262.643 295.5,261C 305.223,245.058 316.057,229.891 328,215.5C 329.883,212.976 332.383,211.642 335.5,211.5 Z"/></g>
<g><path style="opacity:1" fill="#c5d1b6" d="M 411.5,216.5 C 412.573,217.251 412.74,218.251 412,219.5C 407.078,223.032 401.578,225.198 395.5,226C 400.148,225.538 404.814,225.205 409.5,225C 410.249,226.734 410.749,228.567 411,230.5C 412.333,229.167 413.667,227.833 415,226.5C 416.114,230.299 417.447,230.299 419,226.5C 424.494,229.315 424.827,232.648 420,236.5C 418.787,242.09 416.62,247.257 413.5,252C 411.866,252.494 410.199,252.66 408.5,252.5C 408.167,254.5 407.833,256.5 407.5,258.5C 404.282,258.651 403.949,259.484 406.5,261C 397.089,266.25 389.089,273.083 382.5,281.5C 380.621,282.341 378.621,282.675 376.5,282.5C 368.735,279.806 360.735,277.472 352.5,275.5C 353.196,267.541 353.53,259.875 353.5,252.5C 355.228,254.226 357.228,255.559 359.5,256.5C 366.167,257.167 372.833,257.833 379.5,258.5C 379.5,256.5 379.5,254.5 379.5,252.5C 380.057,245.815 380.724,239.148 381.5,232.5C 383.828,230.619 384.161,228.286 382.5,225.5C 382.939,222.824 383.939,220.491 385.5,218.5C 386.641,220.667 387.641,223 388.5,225.5C 396.012,222.042 403.679,219.042 411.5,216.5 Z"/></g>
<g><path style="opacity:1" fill="#85a994" d="M 133.5,211.5 C 135.635,211.147 136.968,211.98 137.5,214C 137.329,216.681 137.163,219.515 137,222.5C 136.308,223.025 135.808,223.692 135.5,224.5C 136.876,228.046 138.876,231.213 141.5,234C 144.844,234.667 147.511,236.334 149.5,239C 148.452,244.42 150.118,248.92 154.5,252.5C 160.287,261.931 159.454,262.598 152,254.5C 151.536,255.094 151.369,255.761 151.5,256.5C 150.115,255.426 148.949,254.093 148,252.5C 147.536,253.094 147.369,253.761 147.5,254.5C 147.167,254.5 146.833,254.5 146.5,254.5C 146.799,252.396 146.466,250.396 145.5,248.5C 141.413,244.238 136.913,240.571 132,237.5C 131.751,238.624 131.251,239.624 130.5,240.5C 127.819,240.932 125.819,242.266 124.5,244.5C 122.036,247.134 119.369,249.468 116.5,251.5C 116.611,252.117 116.944,252.617 117.5,253C 114.968,253.619 112.635,254.619 110.5,256C 111.416,256.278 112.082,256.778 112.5,257.5C 107.967,258.984 103.3,259.65 98.5,259.5C 96.4319,256.89 94.9319,253.89 94,250.5C 93.2904,251.973 92.1238,252.64 90.5,252.5C 90.477,247.126 89.977,241.793 89,236.5C 87.4886,231.457 85.8219,226.457 84,221.5C 83.0053,220.934 82.172,220.267 81.5,219.5C 83.5,219.5 85.5,219.5 87.5,219.5C 87.5,217.833 87.5,216.167 87.5,214.5C 88.4959,214.414 89.3292,214.748 90,215.5C 92.5417,218.859 92.7084,222.192 90.5,225.5C 92.3592,229.742 95.3592,231.075 99.5,229.5C 105.732,229.064 108.065,225.731 106.5,219.5C 110.615,218.277 114.282,216.277 117.5,213.5C 117.286,215.144 117.62,216.644 118.5,218C 120.828,218.83 123.162,219.663 125.5,220.5C 128.102,220.533 130.102,219.533 131.5,217.5C 134.599,216.467 135.266,214.467 133.5,211.5 Z"/></g>
<g><path style="opacity:1" fill="#2b3f62" d="M 225.5,220.5 C 229.182,220.335 232.848,220.501 236.5,221C 238.324,221.66 239.657,222.827 240.5,224.5C 240.833,225.167 241.167,225.833 241.5,226.5C 239.589,226.574 238.422,227.574 238,229.5C 237.517,228.552 237.351,227.552 237.5,226.5C 235.167,227.833 232.833,227.833 230.5,226.5C 230.335,228.827 229.669,230.993 228.5,233C 229.991,240.45 231.991,247.783 234.5,255C 233.833,256.667 233.167,258.333 232.5,260C 233.578,262.822 234.911,265.488 236.5,268C 236.458,270.916 236.458,273.749 236.5,276.5C 234.5,273.167 232.5,269.833 230.5,266.5C 230.008,264.181 229.008,262.181 227.5,260.5C 224.437,253.644 221.771,246.644 219.5,239.5C 216.524,233.938 216.857,228.604 220.5,223.5C 222.332,222.752 223.999,221.752 225.5,220.5 Z"/></g>
<g><path style="opacity:1" fill="#f3c077" d="M 89.5,203.5 C 90.1667,203.5 90.8333,203.5 91.5,203.5C 93.0725,204.687 94.7392,205.687 96.5,206.5C 95.448,206.351 94.448,206.517 93.5,207C 89.033,211.974 90.033,215.14 96.5,216.5C 96.1854,218.226 96.0187,219.893 96,221.5C 96.3333,221.167 96.6667,220.833 97,220.5C 98,223.167 99,223.167 100,220.5C 100.634,223.555 100.468,226.555 99.5,229.5C 95.3592,231.075 92.3592,229.742 90.5,225.5C 92.7084,222.192 92.5417,218.859 90,215.5C 89.3292,214.748 88.4959,214.414 87.5,214.5C 86.3065,214.03 85.6399,213.03 85.5,211.5C 85.7821,208.269 87.1154,205.602 89.5,203.5 Z"/></g>
<g><path style="opacity:1" fill="#d36c5d" d="M 386.5,211.5 C 387.341,213.379 387.675,215.379 387.5,217.5C 386.508,217.328 385.842,217.662 385.5,218.5C 383.939,220.491 382.939,222.824 382.5,225.5C 384.161,228.286 383.828,230.619 381.5,232.5C 378.167,235.167 374.833,235.167 371.5,232.5C 370.058,231.18 369.392,229.514 369.5,227.5C 370.32,225.86 371.153,224.193 372,222.5C 373.699,223.406 375.533,223.739 377.5,223.5C 377.623,219.194 379.623,216.527 383.5,215.5C 383.343,214.127 383.51,212.793 384,211.5C 384.77,210.402 385.603,210.402 386.5,211.5 Z"/></g>
<g><path style="opacity:1" fill="#7fa385" d="M 273.5,216.5 C 273.5,216.167 273.5,215.833 273.5,215.5C 275.833,216.833 278.167,216.833 280.5,215.5C 283.642,215.799 285.809,217.466 287,220.5C 287.5,229.16 287.666,237.827 287.5,246.5C 286.861,250.797 285.861,255.13 284.5,259.5C 284.087,254.233 284.087,248.899 284.5,243.5C 286.967,238.038 287.134,232.371 285,226.5C 283.254,231.781 283.087,237.114 284.5,242.5C 283.5,242.5 282.5,242.5 281.5,242.5C 280.951,240.099 280.118,237.765 279,235.5C 278.617,236.056 278.117,236.389 277.5,236.5C 278.55,231.886 278.717,227.22 278,222.5C 277.208,219.894 275.708,217.894 273.5,216.5 Z"/></g>
<g><path style="opacity:1" fill="#203357" d="M 241.5,226.5 C 242.167,226.833 242.833,227.167 243.5,227.5C 242.058,228.82 241.392,230.486 241.5,232.5C 242.5,232.5 243.5,232.5 244.5,232.5C 244.827,237.214 244.493,241.88 243.5,246.5C 242.096,245.001 241.43,245.334 241.5,247.5C 243.667,254.842 245,262.342 245.5,270C 244.833,272 244.167,274 243.5,276C 243.509,277.404 244.009,278.57 245,279.5C 246.907,279.579 248.907,279.246 251,278.5C 251.281,276.095 250.615,276.095 249,278.5C 248.047,275.568 247.547,272.568 247.5,269.5C 248.5,269.5 249.5,269.5 250.5,269.5C 250.5,267.5 250.5,265.5 250.5,263.5C 251.868,267.298 252.868,271.298 253.5,275.5C 254.301,277.042 254.634,278.708 254.5,280.5C 254.5,280.833 254.5,281.167 254.5,281.5C 250.373,282.075 246.373,283.075 242.5,284.5C 241.833,284.5 241.167,284.5 240.5,284.5C 239.094,284.027 238.427,283.027 238.5,281.5C 237.559,279.95 236.893,278.284 236.5,276.5C 236.458,273.749 236.458,270.916 236.5,268C 234.911,265.488 233.578,262.822 232.5,260C 233.167,258.333 233.833,256.667 234.5,255C 231.991,247.783 229.991,240.45 228.5,233C 229.669,230.993 230.335,228.827 230.5,226.5C 232.833,227.833 235.167,227.833 237.5,226.5C 237.351,227.552 237.517,228.552 238,229.5C 238.422,227.574 239.589,226.574 241.5,226.5 Z"/></g>
<g><path style="opacity:1" fill="#6d788b" d="M 219.5,239.5 C 219.335,236.15 219.502,232.817 220,229.5C 220.29,227.956 220.956,226.623 222,225.5C 221.845,228.141 221.345,230.807 220.5,233.5C 220.873,238.236 222.206,241.903 224.5,244.5C 224.192,245.308 223.692,245.975 223,246.5C 222.102,243.931 220.935,241.598 219.5,239.5 Z"/></g>
<g><path style="opacity:1" fill="#5a7b6f" d="M 284.5,243.5 C 284.5,243.167 284.5,242.833 284.5,242.5C 283.087,237.114 283.254,231.781 285,226.5C 287.134,232.371 286.967,238.038 284.5,243.5 Z"/></g>
<g><path style="opacity:1" fill="#fdb761" d="M 368.5,226.5 C 368.5,226.833 368.5,227.167 368.5,227.5C 365.57,228.701 364.904,230.701 366.5,233.5C 365.319,238.091 362.653,239.424 358.5,237.5C 358.112,241.153 357.779,244.82 357.5,248.5C 357.747,251.349 358.413,254.016 359.5,256.5C 357.228,255.559 355.228,254.226 353.5,252.5C 350.056,250.264 346.723,247.764 343.5,245C 347.452,245.434 351.452,245.434 355.5,245C 352.146,244.545 348.813,244.045 345.5,243.5C 347.379,240.239 349.379,237.072 351.5,234C 353.557,233.695 355.557,233.695 357.5,234C 356.833,232.333 356.167,230.667 355.5,229C 357.686,227.488 359.353,225.488 360.5,223C 361.5,222.333 362.5,222.333 363.5,223C 364.147,224.609 364.98,226.109 366,227.5C 366.671,226.748 367.504,226.414 368.5,226.5 Z"/></g>
<g><path style="opacity:1" fill="#f9ab51" d="M 368.5,227.5 C 368.833,227.5 369.167,227.5 369.5,227.5C 369.392,229.514 370.058,231.18 371.5,232.5C 367.653,237.576 366.653,243.242 368.5,249.5C 368.818,250.647 369.484,251.481 370.5,252C 372.5,252.333 374.5,252.667 376.5,253C 374.038,254.85 374.538,256.017 378,256.5C 378.21,254.942 378.71,253.609 379.5,252.5C 379.5,254.5 379.5,256.5 379.5,258.5C 372.833,257.833 366.167,257.167 359.5,256.5C 358.413,254.016 357.747,251.349 357.5,248.5C 357.779,244.82 358.112,241.153 358.5,237.5C 362.653,239.424 365.319,238.091 366.5,233.5C 364.904,230.701 365.57,228.701 368.5,227.5 Z"/></g>
<g><path style="opacity:1" fill="#86a38c" d="M 210.5,223.5 C 213.833,223.5 217.167,223.5 220.5,223.5C 216.857,228.604 216.524,233.938 219.5,239.5C 221.771,246.644 224.437,253.644 227.5,260.5C 222.631,262.512 218.298,261.845 214.5,258.5C 211.918,247.134 211.918,235.801 214.5,224.5C 212.901,224.768 211.568,224.434 210.5,223.5 Z"/></g>
<g><path style="opacity:1" fill="#febe6c" d="M 343.5,236.5 C 342.837,234.958 342.17,233.291 341.5,231.5C 340.264,232.246 338.93,232.579 337.5,232.5C 336.996,236.335 335.996,236.335 334.5,232.5C 332.514,235.956 331.014,239.622 330,243.5C 325.028,246.124 322.028,250.124 321,255.5C 318.957,257.208 317.29,259.208 316,261.5C 314.135,259.145 311.969,258.978 309.5,261C 308.44,263.737 307.606,266.57 307,269.5C 305.207,267.975 303.374,266.642 301.5,265.5C 307.338,261.828 312.005,256.995 315.5,251C 316.448,250.517 317.448,250.351 318.5,250.5C 318.954,247.86 320.121,245.527 322,243.5C 324.324,239.876 327.324,236.876 331,234.5C 331.402,233.128 331.902,231.795 332.5,230.5C 330.883,230.331 329.216,229.997 327.5,229.5C 329.625,225.259 332.458,224.592 336,227.5C 337.577,224.801 339.743,224.134 342.5,225.5C 344.547,229.051 344.881,232.717 343.5,236.5 Z"/></g>
<g><path style="opacity:1" fill="#97b08f" d="M 284.5,242.5 C 284.5,242.833 284.5,243.167 284.5,243.5C 284.087,248.899 284.087,254.233 284.5,259.5C 285.861,255.13 286.861,250.797 287.5,246.5C 288.12,252.926 287.453,258.926 285.5,264.5C 283.143,264.337 280.81,264.503 278.5,265C 277.484,265.519 276.818,266.353 276.5,267.5C 278.783,270.303 281.45,272.636 284.5,274.5C 283.833,275.5 283.167,276.5 282.5,277.5C 282.53,276.503 282.03,275.836 281,275.5C 278.654,275.99 276.487,276.657 274.5,277.5C 273.5,277.5 272.5,277.5 271.5,277.5C 272.511,264.081 274.177,250.747 276.5,237.5C 277.167,237.5 277.5,237.167 277.5,236.5C 278.117,236.389 278.617,236.056 279,235.5C 280.118,237.765 280.951,240.099 281.5,242.5C 282.5,242.5 283.5,242.5 284.5,242.5 Z"/></g>
<g><path style="opacity:1" fill="#628c74" d="M 162.5,230.5 C 168.313,238.098 174.146,245.765 180,253.5C 180.667,254.5 180.667,255.5 180,256.5C 178.333,257.733 176.833,259.067 175.5,260.5C 172.681,263.075 169.681,265.408 166.5,267.5C 165.5,267.833 164.833,268.5 164.5,269.5C 159.833,265.5 155.5,261.167 151.5,256.5C 151.369,255.761 151.536,255.094 152,254.5C 159.454,262.598 160.287,261.931 154.5,252.5C 156.454,249.716 158.954,247.383 162,245.5C 162.167,244.333 162.333,243.167 162.5,242C 161.445,237.725 159.445,233.892 156.5,230.5C 158.46,229.481 160.46,229.481 162.5,230.5 Z"/></g>
<g><path style="opacity:1" fill="#fca441" d="M 371.5,232.5 C 374.833,235.167 378.167,235.167 381.5,232.5C 380.724,239.148 380.057,245.815 379.5,252.5C 378.71,253.609 378.21,254.942 378,256.5C 374.538,256.017 374.038,254.85 376.5,253C 374.5,252.667 372.5,252.333 370.5,252C 369.484,251.481 368.818,250.647 368.5,249.5C 366.653,243.242 367.653,237.576 371.5,232.5 Z"/></g>
<g><path style="opacity:1" fill="#fbb25b" d="M 343.5,236.5 C 342.043,238.628 341.043,240.962 340.5,243.5C 342.475,246.306 344.975,248.639 348,250.5C 348.695,256.509 348.195,261.009 346.5,264C 346.707,267.523 347.04,271.023 347.5,274.5C 346.849,273.909 346.182,273.243 345.5,272.5C 343.574,273.061 341.574,273.227 339.5,273C 336.601,275.729 333.934,278.562 331.5,281.5C 331.666,272.827 331.5,264.16 331,255.5C 330.131,260.508 329.464,260.175 329,254.5C 328.79,256.058 328.29,257.391 327.5,258.5C 327.66,256.801 327.494,255.134 327,253.5C 321.249,260.734 315.416,267.734 309.5,274.5C 306.141,271.471 302.808,268.471 299.5,265.5C 300.167,265.5 300.833,265.5 301.5,265.5C 303.374,266.642 305.207,267.975 307,269.5C 307.606,266.57 308.44,263.737 309.5,261C 311.969,258.978 314.135,259.145 316,261.5C 317.29,259.208 318.957,257.208 321,255.5C 322.028,250.124 325.028,246.124 330,243.5C 331.014,239.622 332.514,235.956 334.5,232.5C 335.996,236.335 336.996,236.335 337.5,232.5C 338.93,232.579 340.264,232.246 341.5,231.5C 342.17,233.291 342.837,234.958 343.5,236.5 Z"/></g>
<g><path style="opacity:1" fill="#fafbfa" d="M 151.5,256.5 C 155.5,261.167 159.833,265.5 164.5,269.5C 164.975,271.784 165.975,273.784 167.5,275.5C 161.609,279.613 155.276,282.946 148.5,285.5C 148.284,275.162 147.951,264.829 147.5,254.5C 147.369,253.761 147.536,253.094 148,252.5C 148.949,254.093 150.115,255.426 151.5,256.5 Z"/></g>
<g><path style="opacity:1" fill="#69927b" d="M 146.5,254.5 C 146.833,254.5 147.167,254.5 147.5,254.5C 147.951,264.829 148.284,275.162 148.5,285.5C 147.833,285.5 147.167,285.5 146.5,285.5C 143.572,285.565 140.905,286.232 138.5,287.5C 134.629,287.815 130.962,287.482 127.5,286.5C 129.199,286.66 130.866,286.494 132.5,286C 128.025,274.641 125.192,262.808 124,250.5C 122.39,250.13 120.89,250.797 119.5,252.5C 118.583,251.873 117.583,251.539 116.5,251.5C 119.369,249.468 122.036,247.134 124.5,244.5C 126.32,248.324 128.153,248.324 130,244.5C 131.049,245.517 132.216,245.684 133.5,245C 132.304,244.346 132.304,243.846 133.5,243.5C 135.543,245.208 137.21,247.208 138.5,249.5C 137.358,251.117 136.691,252.95 136.5,255C 139.095,262.105 139.095,269.105 136.5,276C 136.667,276.833 136.833,277.667 137,278.5C 137.333,278.167 137.667,277.833 138,277.5C 139.706,279.705 141.206,282.038 142.5,284.5C 143.425,283.359 144.259,283.359 145,284.5C 146.395,274.566 146.895,264.566 146.5,254.5 Z"/></g>
<g><path style="opacity:1" fill="#18294b" d="M 255.5,224.5 C 256.147,225.274 256.48,226.274 256.5,227.5C 255.931,235.325 255.264,242.992 254.5,250.5C 252.735,249.539 250.735,249.205 248.5,249.5C 248.538,254.271 249.204,258.938 250.5,263.5C 250.5,265.5 250.5,267.5 250.5,269.5C 249.5,269.5 248.5,269.5 247.5,269.5C 247.547,272.568 248.047,275.568 249,278.5C 250.615,276.095 251.281,276.095 251,278.5C 248.907,279.246 246.907,279.579 245,279.5C 244.009,278.57 243.509,277.404 243.5,276C 244.167,274 244.833,272 245.5,270C 245,262.342 243.667,254.842 241.5,247.5C 241.43,245.334 242.096,245.001 243.5,246.5C 244.493,241.88 244.827,237.214 244.5,232.5C 243.5,232.5 242.5,232.5 241.5,232.5C 241.392,230.486 242.058,228.82 243.5,227.5C 247.521,226.176 251.521,225.176 255.5,224.5 Z"/></g>
<g><path style="opacity:1" fill="#fdfdfc" d="M 327.5,258.5 C 327.5,264.833 327.5,271.167 327.5,277.5C 301.614,312.083 267.281,324.916 224.5,316C 203.192,309.695 186.192,297.528 173.5,279.5C 174.306,278.272 175.306,277.272 176.5,276.5C 183.167,273.167 189.833,269.833 196.5,266.5C 197.328,270.801 199.661,274.134 203.5,276.5C 204.343,282.55 205.51,288.55 207,294.5C 208.699,295.406 210.533,295.739 212.5,295.5C 212.431,290.387 213.097,285.387 214.5,280.5C 220.152,281.032 225.819,281.365 231.5,281.5C 233.833,281.5 236.167,281.5 238.5,281.5C 238.427,283.027 239.094,284.027 240.5,284.5C 236.136,287.111 231.969,290.111 228,293.5C 227.517,294.448 227.351,295.448 227.5,296.5C 226.566,297.568 226.232,298.901 226.5,300.5C 236.247,300.186 245.581,299.186 254.5,297.5C 255.461,295.735 255.795,293.735 255.5,291.5C 256.167,293.5 256.833,295.5 257.5,297.5C 265.67,298.291 274.004,298.957 282.5,299.5C 284.333,299.415 285.666,298.748 286.5,297.5C 287.342,293.379 286.009,290.379 282.5,288.5C 282.5,284.833 282.5,281.167 282.5,277.5C 283.167,276.5 283.833,275.5 284.5,274.5C 286.423,274.795 288.09,275.628 289.5,277C 293.167,277.333 296.833,277.667 300.5,278C 297.774,281.63 298.774,282.963 303.5,282C 305.629,279.561 307.629,277.061 309.5,274.5C 315.416,267.734 321.249,260.734 327,253.5C 327.494,255.134 327.66,256.801 327.5,258.5 Z"/></g>
<g><path style="opacity:1" fill="#aec1ab" d="M 254.5,250.5 C 254.826,259.017 254.493,267.35 253.5,275.5C 252.868,271.298 251.868,267.298 250.5,263.5C 249.204,258.938 248.538,254.271 248.5,249.5C 250.735,249.205 252.735,249.539 254.5,250.5 Z"/></g>
<g><path style="opacity:1" fill="#547e68" d="M 146.5,254.5 C 146.895,264.566 146.395,274.566 145,284.5C 144.259,283.359 143.425,283.359 142.5,284.5C 141.206,282.038 139.706,279.705 138,277.5C 137.667,277.833 137.333,278.167 137,278.5C 136.833,277.667 136.667,276.833 136.5,276C 139.095,269.105 139.095,262.105 136.5,255C 136.691,252.95 137.358,251.117 138.5,249.5C 137.21,247.208 135.543,245.208 133.5,243.5C 132.304,243.846 132.304,244.346 133.5,245C 132.216,245.684 131.049,245.517 130,244.5C 128.153,248.324 126.32,248.324 124.5,244.5C 125.819,242.266 127.819,240.932 130.5,240.5C 131.251,239.624 131.751,238.624 132,237.5C 136.913,240.571 141.413,244.238 145.5,248.5C 146.466,250.396 146.799,252.396 146.5,254.5 Z"/></g>
<g><path style="opacity:1" fill="#162646" d="M 276.5,237.5 C 274.177,250.747 272.511,264.081 271.5,277.5C 270.833,278.833 270.167,280.167 269.5,281.5C 266.833,281.5 264.167,281.5 261.5,281.5C 261.344,277.418 261.844,273.418 263,269.5C 264.245,273.498 265.078,273.331 265.5,269C 265.746,266.328 265.079,264.828 263.5,264.5C 264.845,259.454 266.345,254.454 268,249.5C 269.314,250.313 270.481,251.313 271.5,252.5C 271.833,252.167 272.167,251.833 272.5,251.5C 270.505,245.454 271.505,240.121 275.5,235.5C 276.298,235.957 276.631,236.624 276.5,237.5 Z"/></g>
<g><path style="opacity:1" fill="#304364" d="M 273.5,215.5 C 273.5,215.833 273.5,216.167 273.5,216.5C 271.411,216.857 269.411,217.523 267.5,218.5C 266.289,219.72 266.289,220.887 267.5,222C 265.032,224.228 263.865,227.062 264,230.5C 263,232.167 262,233.833 261,235.5C 258.722,245.761 258.056,256.094 259,266.5C 258.667,267.5 258.333,268.5 258,269.5C 257.333,268.167 256.667,268.167 256,269.5C 255.501,273.152 255.335,276.818 255.5,280.5C 255.167,280.5 254.833,280.5 254.5,280.5C 254.634,278.708 254.301,277.042 253.5,275.5C 254.493,267.35 254.826,259.017 254.5,250.5C 255.264,242.992 255.931,235.325 256.5,227.5C 256.48,226.274 256.147,225.274 255.5,224.5C 258.606,215.794 264.606,212.794 273.5,215.5 Z"/></g>
<g><path style="opacity:1" fill="#b5c6a9" d="M 411.5,191.5 C 427.477,191.75 433.643,199.75 430,215.5C 427.977,233.115 425.144,250.448 421.5,267.5C 421.719,266.325 421.386,265.325 420.5,264.5C 416.643,266.26 412.976,268.26 409.5,270.5C 402.405,273.212 395.405,276.212 388.5,279.5C 387.83,281.291 387.163,282.958 386.5,284.5C 386.87,280.814 385.537,279.814 382.5,281.5C 389.089,273.083 397.089,266.25 406.5,261C 403.949,259.484 404.282,258.651 407.5,258.5C 407.833,256.5 408.167,254.5 408.5,252.5C 410.199,252.66 411.866,252.494 413.5,252C 416.62,247.257 418.787,242.09 420,236.5C 424.827,232.648 424.494,229.315 419,226.5C 417.447,230.299 416.114,230.299 415,226.5C 413.667,227.833 412.333,229.167 411,230.5C 410.749,228.567 410.249,226.734 409.5,225C 404.814,225.205 400.148,225.538 395.5,226C 401.578,225.198 407.078,223.032 412,219.5C 412.74,218.251 412.573,217.251 411.5,216.5C 414.021,214.981 416.521,213.314 419,211.5C 419.923,209.966 420.423,208.299 420.5,206.5C 418.751,200.751 415.751,195.751 411.5,191.5 Z"/></g>
<g><path style="opacity:1" fill="#1f3256" d="M 273.5,216.5 C 275.708,217.894 277.208,219.894 278,222.5C 278.717,227.22 278.55,231.886 277.5,236.5C 277.5,237.167 277.167,237.5 276.5,237.5C 276.631,236.624 276.298,235.957 275.5,235.5C 271.505,240.121 270.505,245.454 272.5,251.5C 272.167,251.833 271.833,252.167 271.5,252.5C 270.481,251.313 269.314,250.313 268,249.5C 266.345,254.454 264.845,259.454 263.5,264.5C 265.079,264.828 265.746,266.328 265.5,269C 265.078,273.331 264.245,273.498 263,269.5C 261.844,273.418 261.344,277.418 261.5,281.5C 260.833,281.5 260.167,281.5 259.5,281.5C 258.432,280.566 257.099,280.232 255.5,280.5C 255.335,276.818 255.501,273.152 256,269.5C 256.667,268.167 257.333,268.167 258,269.5C 258.333,268.5 258.667,267.5 259,266.5C 258.056,256.094 258.722,245.761 261,235.5C 262,233.833 263,232.167 264,230.5C 263.865,227.062 265.032,224.228 267.5,222C 266.289,220.887 266.289,219.72 267.5,218.5C 269.411,217.523 271.411,216.857 273.5,216.5 Z"/></g>
<g><path style="opacity:1" fill="#d15148" d="M 285.5,264.5 C 289.634,265.485 293.968,265.818 298.5,265.5C 298.833,265.5 299.167,265.5 299.5,265.5C 302.808,268.471 306.141,271.471 309.5,274.5C 307.629,277.061 305.629,279.561 303.5,282C 298.774,282.963 297.774,281.63 300.5,278C 296.833,277.667 293.167,277.333 289.5,277C 288.09,275.628 286.423,274.795 284.5,274.5C 281.45,272.636 278.783,270.303 276.5,267.5C 276.818,266.353 277.484,265.519 278.5,265C 280.81,264.503 283.143,264.337 285.5,264.5 Z"/></g>
<g><path style="opacity:1" fill="#16305e" d="M 193.5,259.5 C 195.002,261.175 196.335,263.008 197.5,265C 196.944,265.383 196.611,265.883 196.5,266.5C 189.833,269.833 183.167,273.167 176.5,276.5C 174.24,275.861 172.24,274.694 170.5,273C 169.279,270.966 167.945,269.133 166.5,267.5C 169.681,265.408 172.681,263.075 175.5,260.5C 181.471,259.759 187.471,259.425 193.5,259.5 Z"/></g>
<g><path style="opacity:1" fill="#2e6d66" d="M 52.5,261.5 C 56.0066,263.754 59.6733,265.754 63.5,267.5C 63.1413,272.627 62.1413,277.627 60.5,282.5C 57.8429,284.114 56.0095,283.448 55,280.5C 54.56,274.093 53.7266,267.759 52.5,261.5 Z"/></g>
<g><path style="opacity:1" fill="#9bb7a1" d="M 127.5,286.5 C 126.833,286.5 126.167,286.5 125.5,286.5C 124.264,280.943 123.597,275.277 123.5,269.5C 119.016,271.405 114.349,272.738 109.5,273.5C 106.08,273.517 102.746,273.683 99.5,274C 106.767,272.004 114.1,270.004 121.5,268C 119.323,266.798 116.989,266.298 114.5,266.5C 113.477,263.607 113.477,260.774 114.5,258C 113.906,257.536 113.239,257.369 112.5,257.5C 112.082,256.778 111.416,256.278 110.5,256C 112.635,254.619 114.968,253.619 117.5,253C 116.944,252.617 116.611,252.117 116.5,251.5C 117.583,251.539 118.583,251.873 119.5,252.5C 120.89,250.797 122.39,250.13 124,250.5C 125.192,262.808 128.025,274.641 132.5,286C 130.866,286.494 129.199,286.66 127.5,286.5 Z"/></g>
<g><path style="opacity:1" fill="#fcfdfb" d="M 125.5,286.5 C 125.5,286.833 125.5,287.167 125.5,287.5C 125.5,288.5 125.5,289.5 125.5,290.5C 115.988,290.99 106.655,289.99 97.5,287.5C 97.5,285.5 97.5,283.5 97.5,281.5C 98.4511,280.081 98.7845,278.415 98.5,276.5C 102.323,275.664 105.989,274.664 109.5,273.5C 114.349,272.738 119.016,271.405 123.5,269.5C 123.597,275.277 124.264,280.943 125.5,286.5 Z"/></g>
<g><path style="opacity:1" fill="#fbfcfa" d="M 409.5,270.5 C 410.344,274.099 410.677,277.766 410.5,281.5C 403.007,285.581 395.007,287.914 386.5,288.5C 386.5,287.167 386.5,285.833 386.5,284.5C 387.163,282.958 387.83,281.291 388.5,279.5C 395.405,276.212 402.405,273.212 409.5,270.5 Z"/></g>
<g><path style="opacity:1" fill="#fafaf5" d="M 66.5,268.5 C 72.9112,271.702 79.5779,274.369 86.5,276.5C 86.5,278.5 86.5,280.5 86.5,282.5C 78.9802,278.969 72.3135,274.302 66.5,268.5 Z"/></g>
<g><path style="opacity:1" fill="#415a82" d="M 166.5,267.5 C 167.945,269.133 169.279,270.966 170.5,273C 172.24,274.694 174.24,275.861 176.5,276.5C 175.306,277.272 174.306,278.272 173.5,279.5C 172.448,279.649 171.448,279.483 170.5,279C 169.837,277.482 168.837,276.315 167.5,275.5C 165.975,273.784 164.975,271.784 164.5,269.5C 164.833,268.5 165.5,267.833 166.5,267.5 Z"/></g>
<g><path style="opacity:1" fill="#88aa92" d="M 230.5,266.5 C 232.5,269.833 234.5,273.167 236.5,276.5C 236.893,278.284 237.559,279.95 238.5,281.5C 236.167,281.5 233.833,281.5 231.5,281.5C 230.942,280.21 229.942,279.377 228.5,279C 228.086,274.782 228.752,270.615 230.5,266.5 Z"/></g>
<g><path style="opacity:1" fill="#fea847" d="M 347.5,274.5 C 348.625,280.532 346.959,285.532 342.5,289.5C 340.167,289.5 337.833,289.5 335.5,289.5C 333.167,289.5 330.833,289.5 328.5,289.5C 328.639,286.412 329.639,283.745 331.5,281.5C 333.934,278.562 336.601,275.729 339.5,273C 341.574,273.227 343.574,273.061 345.5,272.5C 346.182,273.243 346.849,273.909 347.5,274.5 Z"/></g>
<g><path style="opacity:1" fill="#fdfcfa" d="M 352.5,275.5 C 360.735,277.472 368.735,279.806 376.5,282.5C 376.5,284.833 376.5,287.167 376.5,289.5C 367.804,290.193 359.471,288.86 351.5,285.5C 351.342,282.098 351.676,278.764 352.5,275.5 Z"/></g>
<g><path style="opacity:1" fill="#fec67b" d="M 331.5,281.5 C 329.639,283.745 328.639,286.412 328.5,289.5C 327.517,285.702 327.183,281.702 327.5,277.5C 327.5,271.167 327.5,264.833 327.5,258.5C 328.29,257.391 328.79,256.058 329,254.5C 329.464,260.175 330.131,260.508 331,255.5C 331.5,264.16 331.666,272.827 331.5,281.5 Z"/></g>
<g><path style="opacity:1" fill="#367b6f" d="M 86.5,276.5 C 89.0961,277.265 91.7628,277.599 94.5,277.5C 93.5422,283.744 93.2088,290.077 93.5,296.5C 92.1779,296.67 91.0113,296.337 90,295.5C 88.4171,291.14 87.2505,286.806 86.5,282.5C 86.5,280.5 86.5,278.5 86.5,276.5 Z"/></g>
<g><path style="opacity:1" fill="#35796e" d="M 203.5,276.5 C 207.248,277.858 210.914,279.191 214.5,280.5C 213.097,285.387 212.431,290.387 212.5,295.5C 210.533,295.739 208.699,295.406 207,294.5C 205.51,288.55 204.343,282.55 203.5,276.5 Z"/></g>
<g><path style="opacity:1" fill="#2a6c61" d="M 421.5,267.5 C 420.833,270.167 420.167,272.833 419.5,275.5C 418.366,278.37 417.7,281.37 417.5,284.5C 415.5,284.5 413.5,284.5 411.5,284.5C 411.737,283.209 411.404,282.209 410.5,281.5C 410.677,277.766 410.344,274.099 409.5,270.5C 412.976,268.26 416.643,266.26 420.5,264.5C 421.386,265.325 421.719,266.325 421.5,267.5 Z"/></g>
<g><path style="opacity:1" fill="#d7dadb" d="M 271.5,277.5 C 272.5,277.5 273.5,277.5 274.5,277.5C 274.5,279.833 274.5,282.167 274.5,284.5C 272.326,284.25 270.659,283.25 269.5,281.5C 270.167,280.167 270.833,278.833 271.5,277.5 Z"/></g>
<g><path style="opacity:1" fill="#327062" d="M 282.5,277.5 C 282.5,281.167 282.5,284.833 282.5,288.5C 279.605,287.601 276.938,286.267 274.5,284.5C 274.5,282.167 274.5,279.833 274.5,277.5C 276.487,276.657 278.654,275.99 281,275.5C 282.03,275.836 282.53,276.503 282.5,277.5 Z"/></g>
<g><path style="opacity:1" fill="#edae61" d="M 340.5,243.5 C 342.167,243.5 343.833,243.5 345.5,243.5C 348.813,244.045 352.146,244.545 355.5,245C 351.452,245.434 347.452,245.434 343.5,245C 346.723,247.764 350.056,250.264 353.5,252.5C 353.53,259.875 353.196,267.541 352.5,275.5C 351.676,278.764 351.342,282.098 351.5,285.5C 351.759,287.989 350.759,289.656 348.5,290.5C 346.735,289.539 344.735,289.205 342.5,289.5C 346.959,285.532 348.625,280.532 347.5,274.5C 347.04,271.023 346.707,267.523 346.5,264C 348.195,261.009 348.695,256.509 348,250.5C 344.975,248.639 342.475,246.306 340.5,243.5 Z"/></g>
<g><path style="opacity:1" fill="#fefbf0" d="M 17.5,277.5 C 20.6285,280.101 21.7951,283.434 21,287.5C 19.5405,284.252 18.3738,280.919 17.5,277.5 Z"/></g>
<g><path style="opacity:1" fill="#26655b" d="M 386.5,284.5 C 386.5,285.833 386.5,287.167 386.5,288.5C 384.735,291.123 384.068,294.123 384.5,297.5C 382.396,297.799 380.396,297.466 378.5,296.5C 377.933,294.018 377.266,291.684 376.5,289.5C 376.5,287.167 376.5,284.833 376.5,282.5C 378.621,282.675 380.621,282.341 382.5,281.5C 385.537,279.814 386.87,280.814 386.5,284.5 Z"/></g>
<g><path style="opacity:1" fill="#e8ece5" d="M 146.5,285.5 C 144.5,286.5 142.5,287.5 140.5,288.5C 139.833,288.167 139.167,287.833 138.5,287.5C 140.905,286.232 143.572,285.565 146.5,285.5 Z"/></g>
<g><path style="opacity:1" fill="#9c5531" d="M 259.5,281.5 C 260.167,281.5 260.833,281.5 261.5,281.5C 264.167,281.5 266.833,281.5 269.5,281.5C 270.659,283.25 272.326,284.25 274.5,284.5C 276.938,286.267 279.605,287.601 282.5,288.5C 286.009,290.379 287.342,293.379 286.5,297.5C 276.833,297.5 267.167,297.5 257.5,297.5C 259.917,292.755 259.917,287.922 257.5,283C 257.836,281.97 258.503,281.47 259.5,281.5 Z"/></g>
<g><path style="opacity:1" fill="#204d52" d="M 94.5,277.5 C 95.5,277.5 96.5,277.5 97.5,277.5C 97.5,278.833 97.5,280.167 97.5,281.5C 97.5,283.5 97.5,285.5 97.5,287.5C 97.5793,290.271 97.0793,292.937 96,295.5C 95.3292,296.252 94.4959,296.586 93.5,296.5C 93.2088,290.077 93.5422,283.744 94.5,277.5 Z"/></g>
<g><path style="opacity:1" fill="#1c3c6f" d="M 125.5,287.5 C 125.5,287.167 125.5,286.833 125.5,286.5C 126.167,286.5 126.833,286.5 127.5,286.5C 130.962,287.482 134.629,287.815 138.5,287.5C 139.167,287.833 139.833,288.167 140.5,288.5C 143.899,290.199 147.232,291.866 150.5,293.5C 146.489,294.558 142.489,295.725 138.5,297C 139.716,298.74 141.382,299.74 143.5,300C 144.252,300.671 144.586,301.504 144.5,302.5C 141.833,302.5 139.167,302.5 136.5,302.5C 134.958,301.837 133.291,301.17 131.5,300.5C 129.703,295.915 127.703,291.582 125.5,287.5 Z"/></g>
<g><path style="opacity:1" fill="#974f2d" d="M 254.5,281.5 C 255.479,284.625 255.813,287.958 255.5,291.5C 255.795,293.735 255.461,295.735 254.5,297.5C 251.455,297.492 248.455,297.159 245.5,296.5C 242.611,295.992 239.778,295.325 237,294.5C 236.067,290.598 237.567,288.098 241.5,287C 242.252,286.329 242.586,285.496 242.5,284.5C 246.373,283.075 250.373,282.075 254.5,281.5 Z"/></g>
<g><path style="opacity:1" fill="#c08c6b" d="M 254.5,281.5 C 254.5,281.167 254.5,280.833 254.5,280.5C 254.833,280.5 255.167,280.5 255.5,280.5C 257.099,280.232 258.432,280.566 259.5,281.5C 258.503,281.47 257.836,281.97 257.5,283C 259.917,287.922 259.917,292.755 257.5,297.5C 256.833,295.5 256.167,293.5 255.5,291.5C 255.813,287.958 255.479,284.625 254.5,281.5 Z"/></g>
<g><path style="opacity:1" fill="#d25146" d="M 335.5,289.5 C 337.833,289.5 340.167,289.5 342.5,289.5C 344.735,289.205 346.735,289.539 348.5,290.5C 348.587,295.537 348.254,300.537 347.5,305.5C 346.167,305.5 344.833,305.5 343.5,305.5C 343.785,303.712 343.452,302.045 342.5,300.5C 340.886,303.284 338.552,305.118 335.5,306C 330.581,306.802 325.748,306.635 321,305.5C 320.333,304.167 320.333,302.833 321,301.5C 326.365,298.078 331.198,294.078 335.5,289.5 Z"/></g>
<g><path style="opacity:1" fill="#b06e45" d="M 240.5,284.5 C 241.167,284.5 241.833,284.5 242.5,284.5C 242.586,285.496 242.252,286.329 241.5,287C 237.567,288.098 236.067,290.598 237,294.5C 239.778,295.325 242.611,295.992 245.5,296.5C 241.74,297.794 237.74,298.46 233.5,298.5C 231.048,298.461 229.048,297.794 227.5,296.5C 227.351,295.448 227.517,294.448 228,293.5C 231.969,290.111 236.136,287.111 240.5,284.5 Z"/></g>
<g><path style="opacity:1" fill="#152a55" d="M 150.5,293.5 C 152.017,293.511 153.184,294.177 154,295.5C 154.977,297.74 155.477,300.073 155.5,302.5C 151.833,302.5 148.167,302.5 144.5,302.5C 144.586,301.504 144.252,300.671 143.5,300C 141.382,299.74 139.716,298.74 138.5,297C 142.489,295.725 146.489,294.558 150.5,293.5 Z"/></g>
<g><path style="opacity:1" fill="#51688a" d="M 125.5,287.5 C 127.703,291.582 129.703,295.915 131.5,300.5C 133.291,301.17 134.958,301.837 136.5,302.5C 133.223,302.784 130.057,302.451 127,301.5C 125.892,297.914 125.392,294.247 125.5,290.5C 125.5,289.5 125.5,288.5 125.5,287.5 Z"/></g>
<g><path style="opacity:1" fill="#e7a279" d="M 257.5,297.5 C 267.167,297.5 276.833,297.5 286.5,297.5C 285.666,298.748 284.333,299.415 282.5,299.5C 274.004,298.957 265.67,298.291 257.5,297.5 Z"/></g>
<g><path style="opacity:1" fill="#eaa175" d="M 227.5,296.5 C 229.048,297.794 231.048,298.461 233.5,298.5C 237.74,298.46 241.74,297.794 245.5,296.5C 248.455,297.159 251.455,297.492 254.5,297.5C 245.581,299.186 236.247,300.186 226.5,300.5C 226.232,298.901 226.566,297.568 227.5,296.5 Z"/></g>
<g><path style="opacity:1" fill="#45b7fa" d="M 96.5,300.5 C 118.931,299.858 139.931,305.024 159.5,316C 165.131,319.627 169.298,324.46 172,330.5C 173.527,338.28 170.694,343.78 163.5,347C 155.404,350.033 147.071,351.033 138.5,350C 132.728,349.135 127.062,348.135 121.5,347C 124.413,353.273 123.58,359.107 119,364.5C 109.311,370.316 99.144,371.149 88.5,367C 82.0024,365.503 76.5024,362.337 72,357.5C 69.9937,354.464 69.1604,351.131 69.5,347.5C 70.552,347.351 71.552,347.517 72.5,348C 75.2283,354.042 79.895,357.709 86.5,359C 94.3665,361.258 102.366,361.924 110.5,361C 118.369,359.204 120.536,354.704 117,347.5C 114.629,344.794 111.963,342.461 109,340.5C 108.503,338.19 108.337,335.857 108.5,333.5C 115.025,336.258 121.692,338.758 128.5,341C 139.973,343.296 151.306,342.796 162.5,339.5C 167.077,338.079 168.577,335.079 167,330.5C 163.749,326.578 159.916,323.412 155.5,321C 137.635,311.634 118.635,307.301 98.5,308C 95.4658,309.374 92.4658,310.374 89.5,311C 88.4238,309.274 88.2571,307.441 89,305.5C 91.4795,303.686 93.9795,302.019 96.5,300.5 Z"/></g>
<g><path style="opacity:1" fill="#43b7fa" d="M 305.5,396.5 C 305.663,394.143 305.497,391.81 305,389.5C 304.283,390.044 303.783,390.711 303.5,391.5C 299.019,396.913 293.352,400.579 286.5,402.5C 281.589,401.052 278.756,397.718 278,392.5C 271.905,399.789 264.405,404.789 255.5,407.5C 248.655,407.148 245.488,403.481 246,396.5C 240.892,401.614 235.225,405.948 229,409.5C 227.527,409.097 226.194,408.43 225,407.5C 224.53,397.276 228.697,389.443 237.5,384C 239.5,383.333 241.5,383.333 243.5,384C 246.967,385.654 250.467,387.154 254,388.5C 254.263,392.835 254.097,397.168 253.5,401.5C 261.243,399.125 267.909,394.958 273.5,389C 275.025,387.991 276.692,387.491 278.5,387.5C 280.694,365.695 283.861,344.029 288,322.5C 292.27,320.755 294.437,322.255 294.5,327C 290.64,346.712 287.64,366.546 285.5,386.5C 284.194,389.687 284.194,393.02 285.5,396.5C 286.107,396.376 286.44,396.043 286.5,395.5C 296.685,391.239 304.685,384.405 310.5,375C 312.513,373.743 314.679,372.909 317,372.5C 319.843,373.754 322.676,373.754 325.5,372.5C 326.938,372.719 328.271,373.219 329.5,374C 330.105,378.196 330.938,382.363 332,386.5C 334.667,383.833 337.333,381.167 340,378.5C 344.881,369.902 350.381,361.735 356.5,354C 361.652,353.399 366.652,352.732 371.5,352C 373.387,355.659 374.887,359.492 376,363.5C 381.713,356.047 385.713,347.713 388,338.5C 388.925,337.953 389.758,337.287 390.5,336.5C 388.71,333.612 387.543,330.612 387,327.5C 391.637,325.282 394.47,326.615 395.5,331.5C 395.783,332.289 396.283,332.956 397,333.5C 397.499,328.845 397.666,324.179 397.5,319.5C 399.904,311.842 404.404,310.509 411,315.5C 416.735,324.575 416.901,333.741 411.5,343C 409.744,343.202 408.078,343.702 406.5,344.5C 409.807,355.922 413.807,367.088 418.5,378C 416.353,381.152 413.853,381.318 411,378.5C 405.272,366.044 399.272,353.711 393,341.5C 391.103,350.027 387.937,358.027 383.5,365.5C 377.203,370.235 372.036,369.235 368,362.5C 365.656,368.856 363.156,375.189 360.5,381.5C 358.579,382.641 356.579,382.808 354.5,382C 352.357,379.242 351.19,376.076 351,372.5C 347.692,378.95 343.526,384.783 338.5,390C 331.103,393.383 326.27,391.217 324,383.5C 320.662,389.512 316.828,395.179 312.5,400.5C 308.209,402.515 305.876,401.181 305.5,396.5 Z"/></g>
<g><path style="opacity:1" fill="#44b7fa" d="M 123.5,316.5 C 125.167,316.5 126.833,316.5 128.5,316.5C 128.756,318.792 128.423,320.959 127.5,323C 109.121,329.425 93.6211,339.925 81,354.5C 78.1043,352.227 77.771,349.56 80,346.5C 92.1116,332.875 106.612,322.875 123.5,316.5 Z"/></g>
<g><path style="opacity:1" fill="#e5dd93" d="M 404.5,319.5 C 409.105,325.717 409.605,332.383 406,339.5C 404.623,332.924 404.123,326.257 404.5,319.5 Z"/></g>
<g><path style="opacity:1" fill="#90c9c7" d="M 397.5,319.5 C 397.666,324.179 397.499,328.845 397,333.5C 396.283,332.956 395.783,332.289 395.5,331.5C 396.167,327.5 396.833,323.5 397.5,319.5 Z"/></g>
<g><path style="opacity:1" fill="#44b7fa" d="M 226.5,360.5 C 227.043,360.44 227.376,360.107 227.5,359.5C 218.008,358.178 208.675,358.178 199.5,359.5C 196.03,360.125 193.196,359.125 191,356.5C 190.316,355.216 190.483,354.049 191.5,353C 204.833,352.667 218.167,352.333 231.5,352C 234.281,346.731 237.614,341.897 241.5,337.5C 243.596,338.592 244.929,340.259 245.5,342.5C 243.771,346.29 241.771,349.956 239.5,353.5C 250.106,354.933 260.44,357.433 270.5,361C 273.857,362.512 275.857,365.012 276.5,368.5C 264.792,364.073 252.625,361.406 240,360.5C 238.167,360.833 236.333,361.167 234.5,361.5C 221.138,381.588 213.138,403.588 210.5,427.5C 206.469,427.966 204.469,426.133 204.5,422C 205.506,411.143 208.006,400.643 212,390.5C 216.575,380.351 221.408,370.351 226.5,360.5 Z"/></g>
<g><path style="opacity:1" fill="#aad0b6" d="M 199.5,359.5 C 208.675,358.178 218.008,358.178 227.5,359.5C 227.376,360.107 227.043,360.44 226.5,360.5C 217.682,359.507 208.682,359.173 199.5,359.5 Z"/></g>
<g><path style="opacity:1" fill="#44b7fa" d="M 142.5,361.5 C 147.765,360.571 152.265,361.904 156,365.5C 156.483,366.448 156.649,367.448 156.5,368.5C 161.654,369.612 162.82,372.612 160,377.5C 158.122,379.043 156.622,380.876 155.5,383C 167.674,384.328 178.841,381.828 189,375.5C 190.709,376.57 192.209,377.903 193.5,379.5C 200.886,376.438 205.22,378.772 206.5,386.5C 204.092,385.939 201.759,385.439 199.5,385C 191.922,387.958 185.588,392.625 180.5,399C 177.647,399.659 175.98,398.492 175.5,395.5C 176.531,392.3 178.198,389.467 180.5,387C 175.546,387.818 170.546,388.818 165.5,390C 161.833,390.667 158.167,390.667 154.5,390C 149.412,386.553 148.412,382.22 151.5,377C 145.286,377.592 139.119,378.758 133,380.5C 128.251,380.414 126.585,378.08 128,373.5C 132.149,368.503 136.983,364.503 142.5,361.5 Z"/></g>
<g><path style="opacity:1" fill="#8ec7cd" d="M 359.5,359.5 C 360.333,362.218 359.833,364.885 358,367.5C 357.955,364.78 358.455,362.114 359.5,359.5 Z"/></g>
<g><path style="opacity:1" fill="#a1cdbe" d="M 147.5,367.5 C 152.6,367.466 152.766,368.132 148,369.5C 147.167,369.333 146.333,369.167 145.5,369C 146.416,368.722 147.082,368.222 147.5,367.5 Z"/></g>
<g><path style="opacity:1" fill="#b0d1b4" d="M 317.5,377.5 C 318.043,377.56 318.376,377.893 318.5,378.5C 313.886,384.949 313.552,384.616 317.5,377.5 Z"/></g>
<g><path style="opacity:1" fill="#b8d3af" d="M 285.5,386.5 C 285.19,389.713 285.523,392.713 286.5,395.5C 286.44,396.043 286.107,396.376 285.5,396.5C 284.194,393.02 284.194,389.687 285.5,386.5 Z"/></g>
<g><path style="opacity:1" fill="#a5cfb9" d="M 305.5,396.5 C 304.833,394.833 304.167,393.167 303.5,391.5C 303.783,390.711 304.283,390.044 305,389.5C 305.497,391.81 305.663,394.143 305.5,396.5 Z"/></g>
<g><path style="opacity:1" fill="#a1ccbf" d="M 239.5,390.5 C 240.239,390.369 240.906,390.536 241.5,391C 240.234,392.983 238.568,393.983 236.5,394C 237.71,392.961 238.71,391.794 239.5,390.5 Z"/></g>
<g><path style="opacity:1" fill="#fcf0bf" d="M 420.5,402.5 C 417.94,406.57 414.773,410.236 411,413.5C 413.131,409.183 416.298,405.516 420.5,402.5 Z"/></g>
</svg>
